<?xml version="1.0" encoding="iso-8859-1"?>
<!-- Generator: Adobe Illustrator 25.1.0, SVG Export Plug-In . SVG Version: 6.00 Build 0)  -->
<svg version="1.1" id="&#x5716;&#x5C64;_1" xmlns="http://www.w3.org/2000/svg" xmlns:xlink="http://www.w3.org/1999/xlink" x="0px"
	 y="0px" viewBox="0 0 777.69 120.172" style="enable-background:new 0 0 777.69 120.172;" xml:space="preserve">
<g>
	<g>
		<g>
			<defs>
				<path id="SVGID_1_" d="M84.283,87.842v-5.457c0.446-0.014,0.881-0.115,1.272-0.026c1.622,0.37,3.221,0.852,4.848,1.19
					c3.064,0.638,6.183,0.661,9.295,0.642c2.884-0.017,5.77-0.175,8.653-0.139c2.042,0.025,4.101,0.144,6.119,0.442
					c4.771,0.702,7.25,3.707,8.155,7.739c0.607,2.701,0.305,5.282-0.813,7.777c-1.415,3.159-3.935,4.964-7.273,5.583
					c-4.585,0.851-9.035-3.116-8.566-7.648c0.295-2.84,1.781-4.3,4.44-4.681c1.021-0.147,1.973,0.11,2.84,0.614
					c1.436,0.834,2.066,2.653,1.431,4.162c-0.796,1.893-2.572,2.106-3.723,1.396c-0.433-0.267-0.875-0.517-1.368-0.808
					c-0.537,1.348-0.149,2.387,0.636,3.275c0.866,0.979,2.075,1.254,3.316,1.165c1.063-0.077,2.07-0.439,2.957-1.078
					c2.288-1.652,3.565-5.156,2.862-7.905c-0.658-2.574-2.157-4.545-4.521-5.708c-4.065-1.999-8.082-1.632-11.933,0.653
					c-0.988,0.585-1.755,1.439-2.229,2.525c-0.176,0.403-0.429,0.772-0.73,1.308c-0.369-0.484-0.666-0.813-0.892-1.184
					c-0.953-1.555-2.336-2.585-4-3.238c-2.979-1.167-6.052-1.282-9.174-0.733c-0.445,0.079-0.89,0.163-1.337,0.233
					c-0.005,0-0.009,0.001-0.014,0.001C84.476,87.942,84.406,87.89,84.283,87.842 M43.227,84.15c2.884-0.01,5.773-0.009,8.649-0.178
					c2.5-0.147,4.936-0.773,7.348-1.452c0.488-0.138,1-0.182,1.674-0.299v5.68c-0.115-0.005-0.231-0.004-0.346-0.004
					c-0.244,0-0.487,0.001-0.714-0.055c-2.634-0.641-5.258-0.587-7.882,0.035c-2.612,0.62-4.807,1.84-6.113,4.317
					c-0.067,0.13-0.193,0.232-0.306,0.332c-0.052,0.048-0.134,0.062-0.348,0.152c-0.15-0.186-0.282-0.288-0.332-0.419
					c-0.909-2.413-2.791-3.688-5.133-4.456c-2.839-0.931-5.67-0.977-8.453,0.147c-3.038,1.224-4.925,3.468-5.544,6.705
					c-0.679,3.548,1.776,7.426,5.158,8.299c1.185,0.305,2.269,0.088,3.304-0.427c1.263-0.628,1.685-1.796,1.415-3.82
					c-0.487,0.261-0.916,0.512-1.362,0.73c-1.781,0.872-3.597-0.077-3.924-2.041c-0.273-1.629,0.634-3.186,2.222-3.811
					c3.092-1.219,6.256,0.766,6.661,4.119c0.616,5.074-4.486,8.916-8.986,7.813c-4-0.981-6.467-3.518-7.52-7.427
					c-0.621-2.311-0.537-4.644,0.182-6.957c1.179-3.798,3.789-5.965,7.631-6.614c1.861-0.314,3.77-0.425,5.661-0.466
					c1.311-0.028,2.624,0.008,3.937,0.044c0.979,0.027,1.958,0.053,2.938,0.053C43.105,84.15,43.166,84.15,43.227,84.15
					 M74.326,80.698c1.455-0.135,2.323,0.558,2.551,1.997c0.116,0.731,0.077,1.52-0.058,2.251c-0.177,0.963-0.428,1.934-0.803,2.835
					c-0.932,2.235-1.945,4.435-2.946,6.642c-0.083,0.185-0.313,0.303-0.472,0.45c-0.142-0.116-0.309-0.185-0.362-0.305
					c-1.086-2.415-2.201-4.82-3.214-7.266c-0.373-0.899-0.555-1.889-0.719-2.857c-0.098-0.581-0.082-1.216,0.035-1.795
					c0.294-1.45,1.096-2.078,2.594-1.939c0.536,0.049,1.067,0.073,1.596,0.073C73.125,80.784,73.722,80.754,74.326,80.698
					 M69.024,73.609c-0.001-1.557,1.037-2.688,1.426-4.038c0.376-1.306,0.849-2.587,1.159-3.906
					c0.323-1.379,0.502-2.791,0.824-4.652c1.153,2.349,0.862,4.549,1.616,6.487c0.76,1.951,1.477,3.92,2.254,5.987
					c-0.933,0.427-1.839,0.376-2.715,0.325c-0.311-0.017-0.618-0.035-0.921-0.032c-0.619,0.007-1.245,0.066-1.878,0.066
					C70.207,73.846,69.618,73.796,69.024,73.609 M81.057,0.148c-1.186,0.345-2.575,0.312-3.355,1.702
					c0.438,0.204,0.785,0.349,1.118,0.521c1.547,0.799,1.937,2.115,0.964,3.543c-0.418,0.616-1.007,1.124-1.556,1.641
					c-0.606,0.573-1.268,1.088-1.886,1.648c-0.798,0.726-1.447,1.582-1.798,2.6c-0.847,2.462-1.385,4.985-0.94,7.597
					c0.253,1.487,0.656,2.947,1.024,4.563c-0.238,0.479-0.559,1.08-0.839,1.699c-1.155,2.544-1.284,5.116-0.165,7.711
					c1.199,2.783,4.121,3.418,6.258,1.266c0.728-0.733,1.291-1.697,1.709-2.652c0.667-1.534,1.046-3.177,1.094-4.861
					c0.053-1.897,0.034-3.796,0.047-5.693c0.003-0.684-0.077-1.379,0.029-2.047c0.315-2.001,2.75-3.009,4.431-1.873
					c1.506,1.018,1.398,3.119-0.226,3.891c-0.605,0.288-1.27,0.449-1.882,0.659c-0.399,1.901-0.433,5.066-0.067,7.107
					c1.734,0.549,3.221-0.079,4.582-1.126c1.448-1.114,2.226-2.669,2.633-4.41c0.522-2.241,0.589-4.505,0.271-6.787
					c-0.08-0.574-0.012-1.169-0.012-1.815c0.604-0.188,1.091-0.39,1.597-0.491c4.706-0.936,9.456-1.489,14.253-1.098
					c2.336,0.191,4.657,0.638,6.798,1.717c2.635,1.329,4.312,3.377,4.549,6.358c0.209,2.641-0.356,5.15-2.013,7.294
					c-1.273,1.648-2.983,2.552-5.082,2.636c-0.758,0.029-1.527,0.058-2.275-0.042c-2.342-0.314-4.382-1.26-5.805-3.213
					c-1.313-1.802-0.951-4.245,0.766-5.744c1.539-1.345,4.417-1.325,5.883,0.048c1.069,1.001,1.234,2.264,0.82,3.564
					c-0.356,1.119-1.27,1.632-2.441,1.734c-0.133,0.011-0.275,0-0.418-0.013c-0.364-0.031-0.743-0.062-1.043,0.303
					c2.464,1.914,5.097,1.518,6.639-0.943c1.855-2.961,0.943-6.913-2.03-8.747c-1.981-1.222-4.178-1.868-6.468-1.95
					c-2.816-0.098-5.386,0.704-7.492,2.718c-3.27,3.128-3.964,8.002-2.106,11.504c0.232,0.438,0.689,0.857,0.273,1.548
					c-0.304,0.018-0.675,0.079-1.041,0.058c-4.475-0.258-8.544,1.079-12.392,3.201c-4.816,2.655-8.109,6.559-9.497,11.949
					c-0.264,1.026-0.438,2.076-0.645,3.116c-0.16,0.802-0.225,1.631-0.766,2.665c-0.473-1.35-0.623-2.447-0.811-3.538
					c-0.997-5.757-3.767-10.37-8.809-13.473c-4.152-2.554-8.588-4.169-13.56-3.925c-0.413,0.021-0.832-0.09-1.191-0.133
					c-0.059-0.232-0.114-0.322-0.09-0.377c0.243-0.553,0.521-1.092,0.747-1.652c2.187-5.426-0.736-11.424-6.003-13.115
					c-3.89-1.248-7.526-0.421-10.836,1.78c-2.802,1.863-3.294,6.24-1.165,8.875c1.144,1.416,3.22,2.265,5.318,1.219
					c0.382-0.192,0.883-0.312,0.802-0.981c-0.592-0.05-1.2-0.049-1.785-0.161c-1.058-0.205-1.769-0.865-2.07-1.896
					c-0.419-1.44,0.209-2.948,1.486-3.753c0.81-0.51,1.704-0.608,2.625-0.598c1.772,0.02,3.034,0.854,3.787,2.442
					c0.791,1.672,0.647,3.263-0.601,4.658c-0.498,0.558-1.099,1.051-1.725,1.467c-1.702,1.128-3.604,1.506-5.637,1.441
					c-3.039-0.098-5.152-1.547-6.482-4.233c-0.793-1.603-1.091-3.325-1.068-5.08c0.039-2.877,1.303-5.117,3.814-6.568
					c0.849-0.49,1.752-0.939,2.687-1.214c2.112-0.62,4.274-0.982,6.493-1.044c3.048-0.086,6.079,0.096,9.076,0.581
					c1.692,0.274,3.478,0.286,5.031,1.129c0.409,0.872,0.201,1.71,0.067,2.515c-0.32,1.91-0.119,3.791,0.232,5.662
					c0.269,1.434,0.795,2.789,1.777,3.893c1.433,1.614,3.159,2.544,5.382,2.133c0.485-1.732,0.473-5.324,0.001-7.239
					c-0.569-0.186-1.161-0.333-1.711-0.572c-1.188-0.517-1.628-1.581-1.209-2.799c0.362-1.058,1.522-1.735,2.729-1.594
					c1.579,0.185,2.565,1.249,2.591,2.922c0.031,2.05-0.023,4.102-0.018,6.152c0.004,1.84,0.407,3.62,0.967,5.357
					c0.398,1.235,1.002,2.378,1.998,3.266c2.183,1.946,4.987,1.376,6.138-1.293c0.835-1.934,1.133-3.954,0.471-6.002
					c-0.416-1.289-0.966-2.535-1.485-3.879c1.359-3.115,1.496-6.393,0.768-9.75c-0.433-1.995-1.293-3.72-2.865-5.052
					c-0.58-0.492-1.208-0.93-1.747-1.461c-0.535-0.526-1.084-1.083-1.453-1.725c-0.717-1.245-0.361-2.36,0.851-3.109
					c0.424-0.262,1.07-0.191,1.283-0.93C66.108,0.286,64.466,0,62.811,0.092c-2.319,0.127-3.961,1.371-4.727,3.674
					c-0.487-0.073-0.873-0.071-1.215-0.193c-4.619-1.641-9.435-2.208-14.281-2.596c-0.83-0.066-1.677-0.098-2.504-0.015
					c-2.413,0.243-4.837,0.451-7.227,0.859c-3.526,0.604-6.931,1.635-10.096,3.369c-4.188,2.296-7.105,5.687-8.546,10.229
					c-1.394,4.397-1.991,8.926-0.947,13.481c1.378,6.009,4.546,10.708,10.415,13.234c0.199,0.086,0.362,0.251,0.556,0.39
					c-0.027,0.245,0.007,0.494-0.084,0.682c-1.302,2.697-1.568,5.509-1.06,8.438c0.299,1.718,0.61,3.445,0.72,5.18
					c0.248,3.918-2.375,6.6-6.602,6.077c-1.04-0.129-1.869-0.576-2.585-1.3c-1.263-1.278-2.074-2.802-2.411-4.563
					c-0.318-1.669,0.132-3.161,1.19-4.47c0.235-0.291,0.521-0.555,0.824-0.777c1.023-0.747,2.239-0.817,3.192-0.198
					c1.133,0.737,1.604,1.808,1.406,3.121c-0.094,0.633-0.371,1.239-0.624,2.045c1.805-0.505,2.547-1.685,2.927-3.126
					c0.415-1.575,0.38-3.201-0.154-4.724c-0.974-2.783-2.755-4.687-5.931-4.845c-0.431-0.022-0.853-0.204-1.361-0.332
					c0.028-0.456,0.055-0.818,0.069-1.182c0.046-1.288,0.21-2.586,0.106-3.863c-0.267-3.284-1.543-6.151-3.86-8.532
					c-1.192-1.226-2.623-1.701-4.322-1.608c-1.812,0.097-3.417,1.697-3.549,3.539c-0.103,1.404,0.401,2.528,1.377,3.468
					c2.206,2.126,2.77,4.614,1.741,7.491c-0.177,0.497-0.265,1.027-0.386,1.544C4.164,47.57,3.921,50.601,4.2,53.638
					c0.223,2.413,0.699,4.802,1.045,7.204c0.172,1.187,0.62,2.341,0.494,3.7c-0.805,0.388-1.619,0.766-2.421,1.171
					c-1.732,0.872-2.888,2.225-3.22,4.157C0,70.436,0.081,71.087,0.268,71.635c0.279,0.819,1.052,1.15,1.844,0.795
					c0.826-0.368,1.601-0.858,2.369-1.338c0.836-0.521,1.619-1.127,2.463-1.636c1.055-0.635,2.112-0.688,3.205,0.026
					c3.41,2.227,7.197,2.799,11.141,2.211c3.869-0.575,7.318-2.003,9.416-5.622c0.069-0.118,0.231-0.182,0.349-0.271
					c0.021,0.001,0.045,0.001,0.067,0.001c0.053-0.001,0.105-0.002,0.151,0.014c0.143,0.05,0.304,0.088,0.411,0.183
					c2.349,2.067,5.141,2.524,8.106,2.103c9.127-1.299,10.99-9.83,7.88-15.504c-1.215-2.219-3.195-3.443-5.67-3.751
					c-1.555-0.195-3.037,0.229-4.221,1.309c-0.989,0.902-1.568,2.004-1.211,3.461c0.772-0.086,1.441-0.217,2.112-0.224
					c1.691-0.018,3.039,1.231,3.401,3.084c0.319,1.626-0.402,2.974-1.978,3.674c-1.76,0.781-3.448,0.523-4.964-0.559
					c-2.584-1.841-3.597-4.469-3.244-7.546c0.43-3.763,3.699-6.135,6.559-6.753c1.646-0.355,3.288-0.357,4.971-0.086
					c4.71,0.757,7.908,3.318,9.49,7.803c1.514,4.299,1.15,8.53-0.862,12.589c-0.532,1.071-1.286,2.068-2.096,2.955
					c-1.368,1.5-3.075,2.457-5.158,2.594c-0.984,0.065-1.968,0.166-2.952,0.18c-4.715,0.066-9.395,0.415-13.986,1.57
					c-2.732,0.686-5.408,1.516-7.855,2.953c-1.528,0.897-2.869,1.982-3.694,3.609c-0.151,0.3-0.454,0.524-0.792,0.898
					c-0.381-0.587-0.673-1.018-0.944-1.461c-1.508-2.46-4.004-3.08-6.753-1.914c-2.349,0.997-4.198,2.707-5.892,4.577
					c-0.539,0.595-0.702,1.331-0.581,2.126c0.155,1.025,1.175,1.538,2.047,0.973c0.504-0.326,0.926-0.779,1.385-1.175
					c0.516-0.445,1.004-0.929,1.555-1.328c0.861-0.621,1.853-0.8,2.791-0.279c1.067,0.594,1.256,1.663,1.094,2.779
					c-0.087,0.596-0.282,1.179-0.468,1.756c-0.138,0.432-0.376,0.833-0.507,1.266C8.782,89.2,8.27,90.713,7.919,92.262
					c-0.337,1.495-0.352,3.024,0.316,4.467c0.408,0.881,1.027,1.486,2.088,1.483c0.428-0.001,0.854,0.083,1.348,0.135
					c0.14,2.44,0.895,4.587,1.681,6.715c1.252,3.392,1.057,6.695-0.435,9.957c-0.221,0.482-0.501,0.961-0.59,1.471
					c-0.072,0.412-0.025,0.955,0.198,1.287c0.701,1.04,1.647,1.731,2.984,1.831c1.75,0.13,3.113-0.531,4.181-1.856
					c0.773-0.959,1.251-2.066,1.513-3.277c0.14-0.649,0.376-1.276,0.594-2.004c0.571,0.216,1.014,0.324,1.398,0.537
					c4.128,2.293,8.555,3.059,13.2,2.46c5.079-0.654,8.762-3.226,10.546-8.164c0.464-1.282,0.728-2.636,1.186-3.919
					c0.533-1.497,1.091-2.995,1.799-4.414c0.739-1.478,1.982-2.532,3.582-2.984c2.436-0.685,4.837-0.434,7.052,0.794
					c2.766,1.534,3.958,5.086,2.749,7.881c-0.924,2.139-3.28,2.973-5.314,1.883c-1.392-0.747-1.917-2.482-1.188-3.934
					c0.628-1.253,2.044-1.619,3.541-0.98c0.376,0.161,0.562,0.802,1.138,0.486c-0.345-1.523-0.431-1.737-0.889-2.257
					c-0.517-0.587-1.168-0.932-1.911-1.173c-0.828-0.269-1.638-0.335-2.452-0.035c-0.993,0.365-2.04,0.649-2.937,1.182
					c-1.652,0.98-2.63,2.473-2.817,4.437c-0.185,1.935,0.033,3.782,1.005,5.507c0.207,0.368,0.633,0.694,0.335,1.347
					c-0.316,0.127-0.721,0.305-1.137,0.456c-0.638,0.232-1.321,0.375-1.921,0.682c-3.088,1.577-3.591,3.921-3.129,6.858
					c0.077,0.492,0.418,0.83,0.933,0.844c1.2,0.031,2.415,0.188,3.658-0.219c0.138-0.528,0.263-1.034,0.403-1.537
					c0.419-1.493,1.199-2.179,2.736-2.261c0.751-0.041,1.533-0.008,2.262,0.158c1.734,0.396,3.48,0.267,5.219,0.212
					c0.819-0.027,1.657-0.249,2.438-0.52c1.233-0.428,2.103-1.209,2.025-2.676c-0.012-0.222,0.045-0.448,0.075-0.713
					c0.265-0.246,0.53-0.516,0.819-0.753c2.553-2.086,3.784-4.845,4.249-8.052c0.273-1.889,0.367-3.774,0.323-5.675
					c-0.01-0.51,0.068-1.023,0.101-1.481c1.912-0.681,1.912-0.681,3.636,0.224c0,0.589-0.018,1.265,0.004,1.939
					c0.046,1.441,0.06,2.886,0.18,4.322c0.295,3.555,1.618,6.61,4.481,8.88c0.236,0.186,0.438,0.413,0.625,0.59
					c0.332,2.651,0.713,3.113,3.24,3.685c2.099,0.475,4.215,0.341,6.333,0.063c0.898-0.119,1.819-0.251,2.712-0.173
					c1.218,0.108,2.127,0.764,2.457,2.029c0.151,0.574,0.279,1.156,0.452,1.875c1.46,0.093,2.859,0.29,4.39-0.082
					c0.11-0.718,0.267-1.375,0.306-2.037c0.147-2.554-0.99-4.391-3.258-5.509c-0.672-0.332-1.439-0.467-2.141-0.747
					c-0.387-0.154-0.728-0.419-1.207-0.705c1.003-1.448,1.503-2.946,1.731-4.542c0.323-2.257-0.581-5.332-3.332-6.686
					c-0.942-0.464-1.968-0.82-2.997-1.037c-1.845-0.388-3.684,0.598-4.515,2.316c-0.152,0.314-0.288,0.725,0.118,1.018
					c0.655-0.183,1.292-0.423,1.95-0.528c0.799-0.127,1.498,0.154,2.023,0.794c1.206,1.469,0.762,3.59-0.93,4.45
					c-2.06,1.046-4.369,0.162-5.271-2.003c-1.132-2.717,0.002-6.73,3.464-8.15c0.964-0.395,2.042-0.569,3.086-0.707
					c3.204-0.422,5.662,0.831,7.142,3.715c0.619,1.207,1.039,2.523,1.477,3.813c0.438,1.292,0.734,2.633,1.184,3.919
					c1.771,5.056,5.508,7.652,10.683,8.302c4.649,0.584,9.068-0.209,13.191-2.506c0.367-0.205,0.8-0.296,1.35-0.491
					c0.204,0.728,0.385,1.291,0.517,1.864c0.312,1.351,0.821,2.604,1.754,3.655c1.215,1.368,2.746,1.869,4.515,1.527
					c1.179-0.226,2.043-0.976,2.635-2.004c0.462-0.804-0.143-1.443-0.419-2.124c-0.115-0.281-0.25-0.554-0.361-0.836
					c-0.757-1.927-1.33-3.914-1.033-5.993c0.201-1.416,0.598-2.818,1.047-4.18c0.596-1.805,1.204-3.595,1.381-5.503
					c0.019-0.201,0.199-0.387,0.362-0.686c0.347,0,0.718-0.007,1.089,0.002c0.964,0.021,1.579-0.521,1.951-1.32
					c0.249-0.539,0.476-1.15,0.48-1.73c0.008-1.206,0.016-2.449-0.259-3.61c-0.399-1.69-1.001-3.338-1.605-4.973
					c-0.377-1.02-0.62-2.032-0.451-3.111c0.205-1.315,1.092-2.012,2.417-1.8c0.575,0.092,1.163,0.352,1.651,0.676
					c0.561,0.373,1.013,0.911,1.526,1.362c0.397,0.35,0.781,0.731,1.229,1.004c0.801,0.489,1.733,0.038,1.924-0.881
					c0.162-0.782,0.073-1.535-0.46-2.149c-1.761-2.026-3.711-3.866-6.266-4.794c-3.142-1.141-5.092-0.076-6.362,1.926
					c-0.315,0.496-0.676,0.963-1.111,1.578c-0.326-0.434-0.588-0.699-0.754-1.016c-0.802-1.544-2.057-2.631-3.546-3.438
					c-1.196-0.649-2.429-1.261-3.706-1.727c-4.375-1.598-8.916-2.42-13.559-2.69c-2.575-0.149-5.156-0.232-7.731-0.378
					c-1.827-0.104-3.387-0.912-4.641-2.177c-0.898-0.907-1.755-1.929-2.344-3.05c-2.19-4.165-2.594-8.533-1.006-12.998
					c1.368-3.845,4.056-6.36,8.018-7.404c1.164-0.306,2.393-0.5,3.593-0.508c3.096-0.02,5.826,0.925,7.843,3.433
					c2.649,3.292,2.003,8.473-1.396,10.974c-1.562,1.15-3.269,1.569-5.144,0.79c-1.722-0.714-2.387-1.946-2.061-3.819
					c0.311-1.777,1.728-3.015,3.476-2.982c0.601,0.011,1.198,0.138,1.956,0.232c0.346-1.639-0.259-2.724-1.312-3.592
					c-1.167-0.96-2.567-1.394-4.043-1.193c-2.836,0.385-4.93,1.898-6.109,4.536c-0.37,0.824-0.662,1.712-0.808,2.602
					c-0.807,4.938,1.223,9.008,5.575,11.128c2.047,0.997,4.203,1.212,6.438,1.068c1.642-0.106,3.102-0.667,4.442-1.587
					c0.426-0.293,0.848-0.588,1.338-0.93c0.258,0.295,0.504,0.488,0.632,0.741c0.832,1.632,2.176,2.728,3.76,3.525
					c5.225,2.627,10.478,2.751,15.728,0.051c0.337-0.173,0.675-0.353,0.988-0.565c0.921-0.621,1.868-0.599,2.791-0.065
					c0.851,0.493,1.656,1.065,2.491,1.587c0.77,0.481,1.516,1.021,2.338,1.39c1.297,0.584,2.205-0.052,2.286-1.51
					c0.092-1.629-0.491-3.021-1.735-4.028c-0.812-0.658-1.809-1.086-2.718-1.626c-0.437-0.26-0.863-0.54-1.28-0.803
					c0.46-2.901,0.922-5.665,1.332-8.435c0.641-4.335,0.406-8.627-0.741-12.864c-0.158-0.584-0.286-1.178-0.39-1.773
					c-0.32-1.834,0.123-3.459,1.358-4.865c0.502-0.57,1.023-1.13,1.456-1.75c0.577-0.821,0.937-1.712,0.691-2.776
					c-0.506-2.198-1.974-3.385-4.221-3.354c-1.096,0.017-2.136,0.261-2.948,1.015c-0.772,0.719-1.562,1.464-2.147,2.33
					c-2.126,3.145-2.941,6.621-2.375,10.399c0.065,0.435,0.094,0.876,0.156,1.476c-0.661,0.13-1.231,0.301-1.809,0.343
					c-1.976,0.146-3.416,1.165-4.509,2.73c-1.492,2.135-1.7,4.519-1.151,6.979c0.235,1.054,0.846,1.948,1.801,2.542
					c0.308,0.191,0.621,0.483,0.991,0.096c-0.175-0.656-0.434-1.294-0.505-1.953c-0.146-1.333,0.401-2.373,1.595-3.021
					c1.035-0.562,2.343-0.338,3.352,0.609c1.508,1.415,2.021,3.181,1.614,5.188c-0.245,1.2-0.792,2.283-1.479,3.306
					c-1.223,1.817-2.892,2.499-5.07,2.385c-2.36-0.124-4.856-2.024-4.974-4.998c-0.042-1.055,0.05-2.123,0.169-3.175
					c0.11-0.978,0.357-1.939,0.509-2.913c0.453-2.904,0.372-5.749-0.973-8.451c-0.128-0.255-0.144-0.565-0.212-0.852
					c1.245-0.697,2.498-1.255,3.59-2.036c3.451-2.47,5.787-5.793,6.971-9.858c1.681-5.769,1.059-11.433-1.151-16.935
					c-1.433-3.574-3.944-6.308-7.293-8.178c-1.712-0.957-3.54-1.752-5.395-2.393c-3.38-1.169-6.906-1.63-10.463-2.033
					c-3.301-0.375-6.53,0.009-9.758,0.352c-3.007,0.319-5.978,1.001-8.852,2.02c-0.466,0.165-1.003,0.127-1.525,0.185
					c-0.536-1.335-1.124-2.513-2.442-3.001C83.74,0.376,82.879,0.02,81.968,0.02C81.67,0.02,81.367,0.058,81.057,0.148"/>
			</defs>
			<clipPath id="SVGID_2_">
				<use xlink:href="#SVGID_1_"  style="overflow:visible;"/>
			</clipPath>
			
				<linearGradient id="SVGID_3_" gradientUnits="userSpaceOnUse" x1="-767.1713" y1="-2826.499" x2="-766.1703" y2="-2826.499" gradientTransform="matrix(145.0756 0 0 145.0756 111297.8359 410116.125)">
				<stop  offset="0" style="stop-color:#F7E975"/>
				<stop  offset="0.3617" style="stop-color:#DFBC19"/>
				<stop  offset="0.9681" style="stop-color:#A57423"/>
				<stop  offset="1" style="stop-color:#A57423"/>
			</linearGradient>
			<rect y="0" style="clip-path:url(#SVGID_2_);fill:url(#SVGID_3_);" width="145.214" height="120.172"/>
		</g>
	</g>
	<path style="fill:#FFFFFF;" d="M165.891,14.407h0.992c0.221,1.066,0.385,2.168,0.495,3.305h15.808
		c-0.22-0.33-0.386-0.697-0.496-1.102c-0.624-1.873-1.927-3.121-3.911-3.744c0.148-0.184,0.257-0.423,0.33-0.717
		c1.213-0.036,2.001-0.056,2.371-0.056c2.679,0,4.772,0.277,6.279,0.827c1.357,0.589,2.037,1.433,2.037,2.533
		c0,0.993-0.257,1.746-0.771,2.259h12.503c1.321-1.175,2.35-2.039,3.083-2.589c0.368-0.22,0.753-0.33,1.158-0.33
		c3.157,2.093,5.159,3.746,6.003,4.957c0,0.479-0.127,0.772-0.384,0.882c-0.406,0.22-1.194,0.33-2.37,0.33
		c-1.799,0.624-3.579,1.12-5.343,1.487c1.176,1.066,1.91,1.781,2.203,2.147c-0.109,0.626-0.403,0.937-0.88,0.937h-6.39v2.533h4.903
		c1.724-2.348,2.845-3.524,3.36-3.524c0.366,0.147,1.174,0.9,2.423,2.257c0.954,0.846,1.431,1.526,1.431,2.039
		c0,0.441-0.201,0.661-0.605,0.661h-11.512v4.462h3.911v-0.772c-0.037-1.064-0.074-2.093-0.111-3.084
		c5.031,0.587,7.546,1.25,7.546,1.983c0,0.367-0.146,0.57-0.439,0.604c-0.626,0.333-1.011,0.626-1.158,0.883v2.147
		c-0.405,1.066-1.542,1.599-3.416,1.599c-1.616,0-2.422-0.349-2.422-1.047v-0.496h-12.614v0.606
		c-0.366,1.064-1.506,1.598-3.413,1.598c-1.616,0-2.426-0.35-2.426-1.047v-4.13c-4.039,2.019-8.61,3.634-13.712,4.846l2.642,0.991
		h23.299c2.167-1.688,3.507-2.534,4.02-2.534c0.441,0,1.47,0.644,3.086,1.928c1.321,0.992,1.983,1.708,1.983,2.149
		c0,0.513-0.533,1.156-1.599,1.927v9.419c0.037,0.991,0.073,2.002,0.111,3.03c0,0.953-0.974,1.504-2.918,1.651
		c4.441,0.698,6.664,2.386,6.664,5.068c0,1.834-0.534,2.937-1.598,3.304c-0.22,0.183-0.625,0.294-1.212,0.33
		c-1.764,0-3.287-0.714-4.57-2.147c-3.637-3.196-7.822-5.123-12.56-5.783c0.073-0.479,0.148-0.717,0.221-0.717
		c1.982-0.257,4.607-0.403,7.876-0.44c0.476,0,0.917,0.017,1.322,0.054c-0.184-0.147-0.295-0.294-0.33-0.44v-0.33h-18.065
		c4.406,2.386,6.609,3.819,6.609,4.296s-0.202,0.717-0.606,0.717c-0.773-0.111-1.453-0.166-2.039-0.166
		c-4.04,2.753-10.887,4.186-20.543,4.296c-0.039-0.331-0.093-0.68-0.166-1.047c7.196-1.543,12.429-4.24,15.698-8.096h-2.81
		c0,0.844-1.138,1.34-3.415,1.487c-2.313,0-3.544-0.294-3.69-0.881c0.183-1.286,0.276-3.029,0.276-5.233v-9.583
		c-0.037-0.993-0.093-1.91-0.166-2.755c-0.624,0.109-1.211,0.22-1.764,0.332c0,1.32-0.348,2.091-1.045,2.313
		c-0.294,0-0.698-0.827-1.211-2.479c-0.809-3.011-1.34-5.307-1.597-6.886c2.348,0.442,4.92,0.699,7.71,0.772v-2.809
		c-3.084,0.036-4.94,0.147-5.563,0.33c-0.44-0.844-0.863-1.653-1.267-2.424c1.248,0.331,3.526,0.534,6.83,0.607v-3.8
		c-1.32,0-2.387,0.037-3.193,0.11c-0.664,1.396-1.857,2.093-3.581,2.093c-2.388-0.147-3.58-1.322-3.58-3.526
		c0-1.064,0.291-1.836,0.881-2.313c0.147-0.22,1.174-0.844,3.083-1.873C164.974,17.603,165.744,16.206,165.891,14.407
		 M183.462,27.736c-0.075-0.073-0.129-0.184-0.166-0.33c0.146,0.036,0.311,0.073,0.496,0.11c1.395-1.983,2.294-4.754,2.7-8.317
		c5.03,0.624,7.617,1.23,7.766,1.817c0,0.55-0.643,0.92-1.929,1.103c-0.367,0.66-0.807,1.247-1.321,1.763h7.324
		c0.662-0.799,1.524-1.744,2.59-2.833c0.22-0.179,0.386-0.272,0.496-0.272c0.33-0.543,0.567-1.087,0.716-1.634h-34.7
		c0.036,0.471,0.055,0.923,0.055,1.356c0,0.724-0.055,1.338-0.166,1.844c1.947,0.143,4.517,0.216,7.71,0.216h2.039
		c1.764-2.093,2.92-3.139,3.471-3.139c0.33,0.146,1.137,0.845,2.423,2.093c0.881,0.768,1.322,1.4,1.322,1.894
		c0,0.39-0.184,0.585-0.552,0.585h-7.49v3.964h0.387c1.724-2.348,2.881-3.524,3.47-3.524c0.366,0.147,1.173,0.9,2.422,2.258
		C182.966,27.095,183.276,27.442,183.462,27.736 M174.869,43.048h21.922v-2.7h-21.922V43.048z M174.869,48.005h21.922v-3.14h-21.922
		V48.005z M174.869,53.348h21.922v-3.524h-21.922V53.348z M193.211,33.961v-4.462h-0.056c-4.92,0-7.785,0.11-8.592,0.33
		c-0.293-0.513-0.55-0.971-0.771-1.377c0.037,0.111,0.055,0.203,0.055,0.277c0,0.44-0.184,0.66-0.551,0.66h-7.05v2.643
		c2.79-0.183,5.38-0.477,7.767-0.88c-0.037-0.367-0.057-0.717-0.057-1.047c5.069,0.587,7.603,1.25,7.603,1.983
		c0,0.367-0.166,0.57-0.496,0.604c-0.624,0.333-1.01,0.626-1.158,0.883v0.386H193.211z M193.211,28.066v-2.533H189.3
		c-1.138,0.882-2.461,1.635-3.965,2.259C187.206,27.975,189.832,28.066,193.211,28.066"/>
	<path style="fill:#FFFFFF;" d="M226.424,24.266c6.021,1.433,9.032,2.46,9.032,3.085c-0.109,0.661-0.899,1.084-2.369,1.267
		c-1.1,2.167-2.496,4.204-4.186,6.113v20.656c0.183,1.651,0.276,3.927,0.276,6.829c0,1.101-1.303,1.707-3.91,1.818
		c-2.02,0-3.029-0.24-3.029-0.717c0.073-1.176,0.11-3.966,0.11-8.372V40.681c-1.726,1.284-3.6,2.46-5.619,3.524
		c-0.257,0-0.478-0.165-0.661-0.497C221.797,37.138,225.247,30.655,226.424,24.266 M224.551,12.866
		c5.949,1.467,8.923,2.57,8.923,3.303c0,0.551-0.827,0.956-2.479,1.213c-3.27,5.177-8.024,8.94-14.266,11.29
		c-0.221-0.44-0.385-0.679-0.494-0.716C219.795,24.469,222.568,19.438,224.551,12.866 M261.233,33.629
		c0.22,0.076,0.587,0.295,1.102,0.662c2.423,2.167,3.69,3.488,3.8,3.96c0,0.512-0.22,0.767-0.66,0.767h-6.39v5.418
		c0.735-0.839,1.725-1.952,2.974-3.338c0.257-0.22,0.496-0.365,0.717-0.438c0.257,0.073,0.623,0.291,1.1,0.656
		c2.425,2.153,3.709,3.466,3.856,3.941c0,0.512-0.22,0.765-0.66,0.765h-7.987v11.126c-0.33,4.039-2.919,6.279-7.765,6.719
		c-0.661-0.037-1.011-0.494-1.047-1.376c0-1.468-0.479-2.79-1.433-3.965c-0.843-0.772-2.184-1.342-4.02-1.709l0.164-0.99
		c1.47,0.11,3.433,0.164,5.895,0.164c0.807,0,1.21-0.623,1.21-1.871v-8.098h-10.96c-5.361,0.075-8.702,0.276-10.025,0.606
		c-0.366-0.969-0.716-1.869-1.046-2.699c2.13,0.442,5.839,0.662,11.126,0.662h10.905v-5.619h-10.243
		c-5.289,0.075-8.593,0.276-9.915,0.606c-0.403-0.969-0.79-1.869-1.157-2.699c2.203,0.442,5.913,0.662,11.126,0.662h15.589
		c0.66-0.846,1.651-2.003,2.973-3.47C260.755,33.849,261.012,33.705,261.233,33.629 M235.787,47.511
		c6.021,0.476,9.033,2.624,9.033,6.443c0,2.423-1.36,3.636-4.076,3.636c-0.661,0-1.304-0.276-1.927-0.826
		c-0.626-0.956-0.937-2.094-0.937-3.416c-0.11-1.064-0.313-1.908-0.606-2.534c-0.294-0.99-0.99-1.854-2.093-2.589
		C235.328,47.894,235.53,47.657,235.787,47.511 M235.841,12.809l6.39,2.48h11.071c2.203-2.24,3.617-3.36,4.24-3.36
		c0.478,0,1.468,0.55,2.974,1.651c1.69,1.176,2.535,2.076,2.535,2.7c0,0.33-0.148,0.643-0.441,0.936
		c-0.551,0.367-0.991,0.79-1.321,1.267v10.74c0.073,1.065,0.146,2.131,0.22,3.195c0,0.991-1.303,1.56-3.91,1.707
		c-2.13,0-3.269-0.237-3.416-0.716v-0.827h-11.181v1.157c-0.038,0.846-1.194,1.342-3.469,1.489c-2.352,0-3.582-0.294-3.692-0.883
		c0.184-1.284,0.276-3.029,0.276-5.232V17.822C236.007,15.913,235.914,14.243,235.841,12.809 M254.183,16.94h-11.181v6.169h11.181
		V16.94z M254.183,24.816h-11.181v6.005h11.181V24.816z"/>
	<path style="fill:#FFFFFF;" d="M297.696,25.259c0.257,0.073,0.643,0.311,1.157,0.714c2.68,2.313,4.076,3.766,4.186,4.353
		c0,0.477-0.203,0.716-0.606,0.716h-9.804v4.846c6.243,0.184,9.419,2.46,9.529,6.83c0,1.396-0.33,2.35-0.992,2.864
		c-0.514,0.589-1.266,0.882-2.258,0.882c-1.909-0.036-2.919-1.266-3.029-3.692c-0.44-2.643-1.523-4.516-3.25-5.617v14.1
		c0.184,2.975,0.276,6.629,0.276,10.962c0,1.027-1.377,1.614-4.131,1.761c-2.13,0-3.195-0.367-3.195-1.101
		c0.111-2.277,0.164-6.299,0.164-12.062v-6.94c-3.45,4.406-7.306,7.859-11.565,10.355c-0.514-0.073-0.808-0.276-0.881-0.606
		c6.02-7.417,9.729-14.945,11.126-22.582c-5.252,0.073-8.52,0.257-9.806,0.55c-0.366-0.917-0.751-1.817-1.156-2.699
		c2.203,0.405,5.912,0.606,11.126,0.606h1.156v-8.262c-3.377,0.22-7.103,0.33-11.179,0.33c0-0.181-0.038-0.494-0.111-0.935
		c9.804-2.276,16.579-4.939,20.325-7.988c4.992,3.489,7.491,5.509,7.491,6.059c-0.037,0.296-0.296,0.44-0.771,0.44
		c-0.699,0-1.286-0.127-1.763-0.384c-1.799,0.734-4.168,1.34-7.106,1.817v8.923h0.881c0.772-0.881,1.873-2.13,3.306-3.746
		C297.146,25.498,297.44,25.332,297.696,25.259 M303.589,17.217c5.546,0.476,8.318,1.175,8.318,2.092
		c0,0.294-0.129,0.551-0.385,0.771c-0.736,0.33-1.121,0.643-1.157,0.936v13.716c0.11,7.455,0.201,12.522,0.276,15.202
		c-0.185,1.358-1.763,2.038-4.737,2.038c-1.505,0-2.258-0.422-2.258-1.268c0.146-2.496,0.219-7.932,0.219-16.302l0.056-10.52
		C303.921,21.202,303.812,18.979,303.589,17.217 M313.505,12.534c2.937,0.479,5.727,0.937,8.372,1.378
		c0.66,0.294,0.99,0.532,0.99,0.715c0,0.406-0.476,0.753-1.432,1.047c-0.22,0.295-0.384,0.442-0.494,0.442l0.053,39.271
		c0,5.764-2.717,8.647-8.15,8.647c-0.955-0.074-1.433-1.029-1.433-2.864c-0.293-0.992-0.808-1.8-1.543-2.423
		c-0.733-0.846-2.239-1.433-4.515-1.763c0-0.296-0.02-0.753-0.055-1.377c1.725,0.184,4.147,0.348,7.27,0.494
		c0.954,0,1.433-0.55,1.433-1.65V19.475C313.962,16.5,313.798,14.187,313.505,12.534"/>
	<path style="fill:#FFFFFF;" d="M374.972,12.37c0.44,0,1.359,0.514,2.754,1.543c1.579,1.101,2.369,1.947,2.369,2.533
		c0,0.294-0.147,0.587-0.441,0.881c-0.515,0.33-0.936,0.716-1.266,1.157v34.148c0.035,3.269,0.091,6.573,0.164,9.915
		c0,0.954-1.194,1.504-3.58,1.653c-2.02,0-3.084-0.222-3.194-0.662V60.84H337.85v1.817c-0.038,0.844-1.213,1.34-3.526,1.487
		c-2.313,0-3.507-0.293-3.58-0.88c0.11-1.286,0.164-3.03,0.164-5.233V26.689c-0.073-5.434-0.128-10.114-0.164-14.046l6.499,2.536
		h33.819C373.081,13.306,374.385,12.37,374.972,12.37 M337.851,59.076h33.928v-25.6c-0.185,0.073-0.386,0.11-0.606,0.11
		c-0.441,0.11-0.81,0.257-1.103,0.44c-1.541,4.562-3.433,8.442-5.673,11.642c1.323,3.091,2.663,4.636,4.022,4.636
		c0.257-0.22,0.606-2.5,1.047-6.843c0.257,0.148,0.494,0.259,0.717,0.332c0.071,2.207,0.144,4.82,0.219,7.834
		c0.074,0.479,0.202,1.234,0.384,2.263c0.221,0.552,0.331,0.975,0.331,1.268c0,1.765-0.661,2.667-1.981,2.704
		c-1.433-0.073-2.352-0.367-2.756-0.882c-2.313-1.068-4.276-3.273-5.893-6.622c-3.634,3.568-7.95,5.942-12.943,7.118
		c-0.073-0.441-0.276-0.662-0.606-0.662c4.81-2.905,8.683-6.657,11.622-11.256c-0.882-2.574-1.617-5.536-2.204-8.882
		c-0.219-3.273-0.44-6.548-0.66-9.821h-6.389c-5.363,0.073-8.702,0.257-10.026,0.55c-0.366-0.896-0.716-1.778-1.046-2.643
		c2.13,0.44,5.839,0.66,11.126,0.66h6.225c-0.148-2.717-0.275-5.434-0.386-8.15c4.7,0.513,7.05,1.1,7.05,1.761
		c-0.037,0.442-0.68,0.846-1.927,1.212c0.034,1.8,0.11,3.524,0.22,5.177h3.524c0.477-0.587,1.12-1.303,1.929-2.147
		c-0.075-0.037-0.13-0.073-0.166-0.11c-0.146-0.147-0.533-0.79-1.157-1.929c-0.514-1.027-1.34-1.964-2.479-2.808
		c0.074-0.073,0.166-0.257,0.276-0.552h2.313c3.268,0.259,4.92,1.213,4.957,2.866c0,0.99-0.257,1.743-0.77,2.257
		c1.652,1.433,2.589,2.386,2.809,2.863v-8.977h-33.928V59.076z M355.034,46.958c0.22,0.405,0.33,0.68,0.33,0.826
		c-2.643,2.24-7.087,4.242-13.329,6.004c-0.037,1.139-0.349,1.762-0.934,1.873c-0.406,0-0.773-0.771-1.103-2.314
		c-0.587-1.687-1.12-3.856-1.597-6.499c1.137,0.368,3.083,0.552,5.837,0.552C348.977,47.4,352.574,47.254,355.034,46.958
		 M340.164,29.168l5.011,1.927h2.975c1.688-1.577,2.771-2.367,3.25-2.367c0.293,0,1.081,0.514,2.368,1.541
		c1.027,0.735,1.543,1.286,1.543,1.652c0,0.441-0.387,0.937-1.158,1.487v7.657c0.037,0.845,0.074,1.672,0.111,2.479
		c0,0.88-1.047,1.34-3.14,1.377c-1.47,0-2.313-0.201-2.533-0.606v-0.937h-2.864v1.046c0,0.663-0.902,1.047-2.7,1.157
		c-1.836,0-2.792-0.22-2.863-0.66c0.11-1.027,0.164-2.404,0.164-4.13v-8.043C340.254,31.354,340.197,30.159,340.164,29.168
		 M345.727,41.615h2.864v-8.811h-2.864V41.615z M362.084,38.421c1.065-2.717,1.873-5.653,2.425-8.813
		c4.038,1.36,6.461,2.333,7.27,2.92v-5.839c-0.147,0.11-0.313,0.166-0.496,0.166h-10.686c0.183,3.01,0.423,5.783,0.716,8.316
		C361.57,36.312,361.826,37.395,362.084,38.421"/>
	<path style="fill:#FFFFFF;" d="M387.035,14.076l5.727,2.203h3.359c1.911-1.577,3.197-2.459,3.857-2.643
		c2.387,0.917,4.186,2.332,5.398,4.24c0,0.626-0.625,1.047-1.873,1.267c-1.909,5.216-4.515,9.658-7.822,13.329
		c5.104,3.526,7.693,7.732,7.767,12.615c-0.184,5.397-2.333,8.701-6.444,9.913c-0.845,0-1.266-0.421-1.266-1.266
		c0-1.58-0.553-2.847-1.654-3.801c-0.293-0.219-0.606-0.403-0.936-0.552v13.385c-0.036,0.771-1.029,1.211-2.974,1.323
		c-1.982,0-3.029-0.239-3.139-0.716c0.11-1.139,0.164-2.644,0.164-4.517V27.902C387.162,22.542,387.108,17.932,387.035,14.076
		 M393.148,48.335c0.697,0.185,1.432,0.295,2.203,0.332c1.396-0.257,2.13-2.02,2.203-5.289c0-4.59-1.046-8.224-3.14-10.906
		c0.955-3.561,1.654-8.517,2.094-14.87h-3.36V48.335z M407.304,45.911c5.177,2.314,7.766,3.783,7.766,4.407
		c0,0.442-0.826,0.679-2.48,0.716c-3.598,4.48-8.077,7.546-13.438,9.199l-0.495-0.496C402.768,56.101,405.651,51.494,407.304,45.911
		 M406.477,12.423c4.517,1.213,6.83,2.093,6.94,2.646c0,0.477-0.587,0.752-1.763,0.824c-0.293,1.03-0.587,1.983-0.88,2.865h2.479
		c1.871-1.835,3.028-2.755,3.47-2.755c0.55,0.075,1.211,0.479,1.982,1.213c1.101,0.846,1.891,1.523,2.369,2.037
		c-0.441-1.688-0.846-3.47-1.211-5.341l0.99-0.496c1.798,6.169,3.984,10.3,6.555,12.392c1.175-2.349,1.946-4.865,2.313-7.546h-3.194
		c-1.176,0.037-2.148,0.166-2.92,0.387c-0.404-0.736-0.735-1.451-0.991-2.149c0.734,0.295,2.019,0.44,3.855,0.44h2.976
		c1.43-1.615,2.404-2.424,2.92-2.424c0.513,0.075,1.284,0.553,2.312,1.433c1.248,0.919,1.873,1.56,1.873,1.927
		c0,0.296-0.129,0.479-0.386,0.552c-0.588,0.074-1.009,0.184-1.266,0.33c-2.057,3.268-4.37,5.784-6.94,7.547
		c2.864,2.349,5.727,3.634,8.592,3.854c0,0.516-0.018,0.827-0.056,0.936c-0.845,0.259-1.542,1.14-2.092,2.644
		c-0.184,1.542-0.314,2.719-0.387,3.526c0,0.66-0.257,1.046-0.771,1.156c-2.129-0.403-5.103-3.763-8.923-10.079
		c-1.212-2.497-2.277-5.47-3.194-8.923c-0.11,0.477-0.589,1.047-1.432,1.707c-1.47,6.685-3.71,11.329-6.72,13.936
		c-0.147,0.183-0.313,0.349-0.496,0.496c1.616,0.073,3.855,0.129,6.72,0.164h0.219c1.36-1.394,2.314-2.423,2.866-3.084
		c0.404-0.55,0.825-0.973,1.266-1.267c0.478,0.257,1.322,0.991,2.535,2.204c1.247,1.32,2.093,2.276,2.534,2.863
		c0,0.477-0.184,0.753-0.551,0.827h-9.033c-2.793,0.11-4.813,0.276-6.06,0.496c-0.257-0.734-0.569-1.338-0.937-1.813
		c-2.423,2.383-5.196,3.997-8.316,4.843c-0.257-0.184-0.423-0.387-0.496-0.607c2.79-1.946,5.232-5.041,7.325-9.287
		c1.798-3.478,2.772-7.047,2.92-10.707h-3.25c-0.368,0.772-0.716,1.469-1.046,2.092c1.688,1.287,2.533,2.573,2.533,3.857
		c-0.147,1.763-1.047,2.643-2.699,2.643c-0.991,0-1.507-0.496-1.543-1.487c0-0.257,0.147-0.569,0.442-0.936
		c0.331-0.624,0.495-1.267,0.495-1.927v-0.716c-0.844,1.432-1.744,2.662-2.699,3.689c1.725,1.396,2.588,2.847,2.588,4.353
		c-0.183,1.726-1.083,2.587-2.697,2.587c-0.993,0-1.507-0.477-1.543-1.431c0-0.293,0.091-0.679,0.276-1.156
		c0.293-0.772,0.44-1.562,0.44-2.37c0-0.366-0.019-0.66-0.056-0.88c-1.286,1.321-2.697,2.423-4.24,3.304
		c-0.33-0.257-0.516-0.458-0.551-0.607C403.374,27.058,405.558,20.796,406.477,12.423 M430.383,38.146
		c0.257,0.075,0.66,0.313,1.211,0.717c2.644,2.313,4.039,3.736,4.186,4.269c0,0.496-0.22,0.743-0.66,0.743h-12.78v13.44
		c-0.294,4.039-2.68,6.279-7.16,6.719c-0.735-0.037-1.14-0.496-1.213-1.377c0-1.469-0.476-2.792-1.43-3.966
		c-0.919-0.77-2.37-1.34-4.353-1.706l0.166-0.993c1.578,0.11,3.671,0.166,6.279,0.166c0.808,0,1.211-0.626,1.211-1.873v-10.41
		h-0.936c-5.361,0.111-8.702,0.313-10.024,0.607c-0.367-0.97-0.716-1.852-1.047-2.644c2.13,0.404,5.838,0.605,11.127,0.605h11.291
		c0.773-0.918,1.873-2.204,3.306-3.854C429.85,38.331,430.124,38.184,430.383,38.146 M424.6,46.904
		c7.307,2.68,11.126,5.416,11.456,8.207c0,2.79-0.699,4.46-2.093,5.012c-0.66,0.367-1.58,0.568-2.754,0.606
		c-1.432,0-2.369-1.469-2.809-4.406c-0.66-3.599-2.259-6.536-4.793-8.813C423.973,47.364,424.304,47.161,424.6,46.904"/>
	<path style="fill:#FFFFFF;" d="M444.757,12.975l6.886,2.918h3.36c2.056-1.981,3.36-2.973,3.91-2.973
		c0.843,0.183,1.726,0.679,2.643,1.487c1.47,1.066,2.259,1.818,2.369,2.259c0,0.476-0.183,0.863-0.549,1.156
		c-0.37,0.331-0.773,0.68-1.213,1.047V55.33c0,4.333-2.314,6.96-6.94,7.877c-0.587,0-0.881-0.514-0.881-1.543
		c-0.405-2.276-0.973-3.8-1.709-4.57c-0.733-0.661-1.726-1.03-2.973-1.103c0.037-0.623,0.055-0.954,0.055-0.991
		c0.075,0.037,1.725,0.055,4.957,0.055c0.698,0,1.084-0.421,1.157-1.267c0-3.451-0.019-7.067-0.056-10.85h-4.351
		c-0.146,2.496-0.33,4.369-0.549,5.619c-0.589,3.304-1.158,5.543-1.709,6.72c-1.652,4.111-3.91,7.03-6.774,8.757
		c-0.33-0.404-0.551-0.736-0.661-0.991c2.204-3.049,3.321-13.183,3.36-30.404V20.19C445.05,17.363,444.941,14.959,444.757,12.975
		 M451.533,41.175h4.24v-11.4h-4.074C451.699,34.365,451.643,38.165,451.533,41.175 M451.699,28.066h4.074V17.492h-4.074V28.066z
		 M467.505,39.412c-1.286,0.075-2.276,0.166-2.973,0.276c0-0.843-0.35-1.688-1.047-2.533c1.101,0.477,4.331,0.716,9.693,0.716
		l7.877-0.056c2.093-2.093,3.506-3.23,4.242-3.414c1.358,0.587,2.644,1.507,3.854,2.754c1.176,0.956,1.873,1.707,2.094,2.257
		c0,0.919-0.79,1.525-2.367,1.819c-1.8,4.626-4.187,8.519-7.163,11.676c3.453,1.286,7.252,1.927,11.403,1.927v1.377
		c-0.808,0-1.45,0.496-1.928,1.489c-0.44,0.99-0.789,2.386-1.046,4.186c-0.075,1.174-0.44,1.761-1.102,1.761
		c-4.664-0.917-8.777-3.029-12.337-6.333c-4.372,2.973-9.53,4.993-15.479,6.059l-0.274-1.157c4.993-2.203,9.143-5.049,12.447-8.538
		C471.196,50.484,469.232,45.728,467.505,39.412 M466.459,12.975l6.61,3.028h4.847c2.055-1.834,3.359-2.771,3.911-2.807
		c0.77,0.036,1.671,0.513,2.698,1.431c1.469,1.187,2.203,2.066,2.203,2.638c0,0.519-0.624,1.127-1.873,1.824v7.766
		c0.036,1.101,0.587,1.653,1.652,1.653c0.844-0.036,1.581-0.79,2.204-2.259c0.993,0,1.963,0.405,2.92,1.212
		c1.1,0.845,1.687,1.652,1.762,2.424c-0.148,2.386-1.982,3.744-5.509,4.076c-1.175,0.11-2.46,0.183-3.853,0.22
		c-3.453,0-5.27-1.726-5.453-5.179V17.436h-5.179c0,3.526-0.11,6.426-0.33,8.703c-0.294,4.883-3.397,8.409-9.31,10.576
		c-0.073-0.221-0.237-0.497-0.494-0.827c1.211-1.836,2.018-3.506,2.423-5.013c0.697-1.32,1.082-5.233,1.157-11.732
		C466.845,16.169,466.715,14.113,466.459,12.975 M476.318,50.098c2.277-3.194,4.021-6.83,5.233-10.906h-10.08
		c-1.065,0.038-2.019,0.093-2.863,0.166C471.214,44.5,473.785,48.08,476.318,50.098"/>
	<path style="fill:#FFFFFF;" d="M506.833,12.756c6.976,0.917,10.556,1.78,10.742,2.588c0,0.772-0.883,1.285-2.644,1.542
		c-1.139,3.6-2.479,6.83-4.022,9.693c1.323,0.479,1.983,0.864,1.983,1.157c0,0.479-0.146,0.736-0.44,0.773
		c-0.771,0.366-1.156,0.753-1.156,1.156V57.37c0.036,1.908,0.053,3.764,0.053,5.563c-0.513,0.624-1.634,1.027-3.359,1.211
		c-2.644,0-3.965-0.277-3.965-0.827c0.146-1.616,0.221-3.599,0.221-5.947V35.943c-1.837,1.799-3.783,3.342-5.84,4.626
		c-0.293-0.514-0.44-0.807-0.44-0.88C502.556,33.485,505.512,24.506,506.833,12.756 M520.108,16.83
		c6.463,1.58,9.693,2.736,9.693,3.47c0,0.626-0.9,1.086-2.697,1.379c-2.499,5.69-5.84,10.17-10.025,13.439
		c1.322,0.33,3.928,0.531,7.822,0.604h10.573c1.947-1.687,3.213-2.533,3.8-2.533c0.736,0.147,1.69,0.753,2.866,1.817
		c1.247,0.956,2.111,1.8,2.587,2.535c0,0.587-0.183,0.937-0.55,1.047c-0.55,0.367-0.991,0.734-1.321,1.101
		c-0.368,11.824-1.231,18.432-2.589,19.828c-1.396,2.424-3.765,3.708-7.106,3.856c-0.734,0-1.194-0.515-1.376-1.543
		c0-1.836-0.367-3.286-1.102-4.35c-1.176-0.992-2.589-1.635-4.242-1.929c0-0.33,0.02-0.733,0.057-1.21
		c2.128,0.256,4.185,0.384,6.169,0.384c1.1,0,1.78-0.274,2.037-0.827c0.734-4.406,1.1-9.987,1.1-16.743h-5.892
		c-0.111,3.746-0.571,7.124-1.377,10.134c-2.533,8.703-7.767,13.935-15.696,15.698c-0.077-0.257-0.167-0.569-0.277-0.936
		c4.59-3.82,7.673-9.657,9.253-17.516c0.403-2.497,0.68-4.957,0.826-7.38c-2.57,0.037-4.205,0.11-4.902,0.22
		c-0.257-0.77-0.533-1.487-0.826-2.147c-1.322,0.991-2.681,1.871-4.074,2.643c-0.221-0.476-0.387-0.733-0.498-0.772
		C515.719,32.438,518.308,25.68,520.108,16.83 M536.027,12.534c1.65,0.809,3.047,1.892,4.184,3.25
		c-0.22,0.882-1.21,1.579-2.974,2.093c0.734,2.682,1.891,4.665,3.47,5.949c2.68,2.753,5.729,4.13,9.143,4.13
		c0,0.33-0.053,0.626-0.164,0.883c-0.883,0.22-1.636,1.45-2.26,3.69c-0.439,2.423-1.009,3.837-1.707,4.24
		c-1.836-0.587-3.855-2.588-6.058-6.003c-2.533-4.333-4.04-8.867-4.517-13.606h-3.58c-1.543,0.076-2.753,0.186-3.636,0.332
		c-0.476-0.772-0.936-1.616-1.377-2.533c1.36,0.294,2.828,0.494,4.407,0.605h2.479C534.684,13.729,535.548,12.72,536.027,12.534"/>
	<path style="fill:#FFFFFF;" d="M599.586,16.003c0.294,0.076,0.771,0.35,1.432,0.827c3.12,2.719,4.772,4.381,4.958,4.985
		c0,0.497-0.22,0.744-0.662,0.744h-28.146c-1.43,2.993-3.009,5.745-4.736,8.258l1.267,0.609h17.515
		c2.167-1.798,3.488-2.698,3.966-2.698c0.441,0,1.505,0.495,3.194,1.487c1.653,1.249,2.48,2.113,2.48,2.59
		c0,0.44-0.406,0.862-1.213,1.266c-0.403,0.441-0.606,0.844-0.606,1.211l-0.054,20.159c0,5.399-2.791,8.28-8.373,8.648
		c-0.66-0.075-0.99-0.882-0.99-2.425c0-1.946-0.81-3.323-2.424-4.13c-1.03-0.624-2.405-1.101-4.132-1.433
		c0.073-0.624,0.203-0.973,0.386-1.046c1.653,0.256,3.984,0.386,6.996,0.386c1.027,0,1.541-0.751,1.541-2.257v-3.196h-18.561v7.382
		c0.073,1.21,0.128,2.9,0.164,5.066c-0.257,0.624-1.559,1.047-3.91,1.267c-2.349,0-3.545-0.257-3.579-0.77
		c0.034-1.14,0.054-2.499,0.054-4.077V37.902c-3.379,3.092-7.18,5.574-11.401,7.449c-0.11-0.183-0.276-0.403-0.496-0.662
		c6.756-6.768,11.696-14.146,14.817-22.13h-3.14c-5.362,0.073-8.684,0.276-9.97,0.606c-0.403-0.969-0.79-1.869-1.156-2.699
		c2.203,0.44,5.93,0.66,11.182,0.66h3.689c1.102-2.937,1.964-5.966,2.59-9.087c6.498,1.761,9.767,2.827,9.804,3.194
		c0,0.699-0.771,1.139-2.314,1.323c-0.589,1.579-1.213,3.103-1.873,4.57h16.856c0.917-1.1,2.219-2.624,3.909-4.57
		C598.981,16.262,599.291,16.079,599.586,16.003 M573.424,39.468h18.561v-6.443h-18.561V39.468z M573.424,48.225h18.561v-7.05
		h-18.561V48.225z"/>
	<path style="fill:#FFFFFF;" d="M613.247,13.58l6.829,2.646h4.24c1.91-1.874,3.194-2.939,3.856-3.196
		c2.387,0.992,4.187,2.423,5.398,4.296c0,0.626-0.624,1.066-1.873,1.323c-2.204,5.177-5.197,9.583-8.978,13.219
		c5.874,3.34,8.85,7.307,8.923,11.897c-0.186,5.103-2.332,8.206-6.445,9.309c-0.991,0-1.487-0.46-1.487-1.379
		c0-1.651-0.643-3.011-1.927-4.074c-0.625-0.404-1.249-0.663-1.873-0.773v15.809c-0.037,0.807-1.139,1.266-3.304,1.377
		c-2.13,0-3.25-0.257-3.359-0.771c0.144-1.213,0.219-2.829,0.219-4.849V27.406C613.391,22.045,613.318,17.436,613.247,13.58
		 M619.91,45.747c0.843,0.294,1.853,0.478,3.03,0.551c1.542-0.22,2.33-1.653,2.369-4.297c0-4.259-1.306-7.636-3.912-10.133
		c1.543-3.416,2.643-8.189,3.306-14.322h-4.793L619.91,45.747L619.91,45.747z M633.459,13.25c2.571,0.993,4.903,1.966,6.996,2.919
		h11.07c2.203-1.983,3.562-2.973,4.076-2.973c0.403,0,1.414,0.643,3.03,1.927c1.358,0.993,2.037,1.707,2.037,2.149
		c0,0.514-0.477,1.138-1.431,1.871v13.549c0,1.433,0.017,2.846,0.054,4.242c0,1.102-1.303,1.671-3.91,1.708
		c-1.946,0-3.012-0.238-3.194-0.717v-1.376h-7.272c1.249,4.259,3.011,7.969,5.29,11.126c2.054-2.314,3.376-5.158,3.963-8.537
		c5.104,2.423,7.657,3.8,7.657,4.13c0,0.406-0.771,0.736-2.314,0.993c-2.313,2.056-5.103,3.616-8.37,4.68
		c0.99,1.213,2.055,2.35,3.193,3.416c3.011,2.203,5.784,3.395,8.317,3.58c0,0.33-0.036,0.68-0.11,1.047
		c-0.661,0.22-1.23,0.697-1.707,1.43c-0.587,1.103-0.993,2.315-1.212,3.636c-0.074,1.137-0.404,1.727-0.991,1.763
		c-2.791-0.55-5.968-3.506-9.529-8.868c-2.167-3.341-4.058-9.473-5.674-18.396h-2.423v18.342c2.46-0.147,4.517-0.387,6.169-0.717
		c0.221,0.477,0.33,0.771,0.33,0.881c-3.083,2.569-8.242,4.848-15.475,6.831c-0.075,1.284-0.387,1.981-0.937,2.091
		c-0.479,0-0.902-0.824-1.266-2.477c-0.589-1.837-1.158-4.186-1.709-7.05c1.212,0.404,3.195,0.605,5.949,0.605l-0.057-35.306
		C634.009,18.172,633.826,16.003,633.459,13.25 M641.005,25.148h11.182v-7.382h-11.182V25.148z M641.005,34.842h11.182v-7.933
		h-11.182V34.842z"/>
	<path style="fill:#FFFFFF;" d="M679.23,15.619c6.976,1.727,10.466,2.92,10.466,3.58c-0.186,0.771-1.122,1.267-2.81,1.487
		c-3.783,8.813-10.006,16.048-18.672,21.702c-0.294,0-0.551-0.184-0.77-0.551C673.943,32.951,677.87,24.212,679.23,15.619
		 M687.327,32.032c6.939,1.69,10.409,2.883,10.409,3.58c-0.147,0.772-1.066,1.267-2.753,1.487
		c-2.644,6.245-6.593,11.549-11.843,15.919c7.674-0.111,14.726-0.238,21.151-0.387c-1.395-3.56-3.525-6.609-6.389-9.143
		c0.257-0.144,0.531-0.347,0.827-0.604c9.986,5.103,15.2,10.243,15.641,15.42c0,2.571-0.662,4.133-1.982,4.683
		c-0.589,0.293-1.433,0.459-2.533,0.496c-2.242,0-3.693-2.222-4.353-6.666c-0.183-0.843-0.386-1.65-0.606-2.423
		c-5.434,1.947-14.926,4.15-28.476,6.61c-0.219,1.726-0.66,2.589-1.32,2.589c-0.332-0.036-0.827-0.919-1.489-2.643
		c-0.954-2.609-1.781-5.216-2.478-7.823c2.827,0,5.598-0.017,8.317-0.053C683.709,45.987,686.335,38.972,687.327,32.032
		 M700.932,13.25c1.761,0.882,3.23,2.057,4.406,3.526c-0.222,0.956-1.266,1.707-3.139,2.257c0.954,3.599,2.496,6.243,4.626,7.932
		c3.524,3.673,7.563,5.508,12.117,5.508c0,0.368-0.055,0.698-0.164,0.992c-0.956,0.22-1.783,1.523-2.48,3.91
		c-0.44,2.57-1.029,4.096-1.762,4.572c-2.571-0.772-5.361-3.286-8.374-7.546c-3.487-5.362-5.562-10.979-6.223-16.855h-4.406
		c-1.947,0.076-3.507,0.186-4.681,0.33c-0.405-0.77-0.846-1.614-1.322-2.533c1.726,0.296,3.56,0.516,5.506,0.66h3.086
		C699.443,14.389,700.379,13.47,700.932,13.25"/>
	<path style="fill:#FFFFFF;" d="M753.699,20.356c0.293,0.073,0.733,0.367,1.322,0.88c3.12,2.719,4.771,4.397,4.957,5.04
		c0,0.46-0.221,0.689-0.661,0.689h-24.125c-5.361,0.073-8.685,0.277-9.969,0.607c-0.405-0.935-0.79-1.835-1.157-2.7
		c2.203,0.44,5.931,0.661,11.181,0.661h13.605c0.844-1.101,2.11-2.624,3.8-4.571C753.019,20.632,753.368,20.429,753.699,20.356
		 M767.524,13.086c3.304,2.019,5.194,3.651,5.673,4.897c-0.186,0.48-0.57,0.923-1.157,1.326c-0.185,0.293-0.496,0.514-0.936,0.661
		v35.637c0,4.369-2.754,7.177-8.263,8.427c-1.211,0-1.817-0.57-1.817-1.707c-0.516-2.719-1.083-4.316-1.707-4.793
		c-0.992-1.176-2.828-1.947-5.509-2.313c0.073-0.33,0.128-0.698,0.166-1.101c0.184,0,2.9,0.11,8.15,0.33
		c0.957-0.146,1.434-0.697,1.434-1.653v-34.7h-27.596c-4.003,0-6.885,0.166-8.646,0.496c-0.369-0.751-0.826-1.576-1.377-2.477
		c2.827,0.293,6.131,0.476,9.914,0.55h27.044C765.135,14.462,766.678,13.269,767.524,13.086 M729.023,31.536l6.664,2.589h11.235
		c2.13-2.02,3.49-3.029,4.076-3.029c0.405,0,1.415,0.662,3.031,1.983c1.322,0.919,1.982,1.616,1.982,2.093
		c0,0.515-0.439,1.157-1.322,1.927v10.465c0.037,1.14,0.073,2.241,0.11,3.306c0,1.101-1.303,1.67-3.91,1.707
		c-1.946,0-3.03-0.239-3.25-0.716v-3.526h-10.906v4.076c-0.036,0.956-1.284,1.506-3.744,1.653c-2.533,0-3.856-0.33-3.966-0.99
		c0.146-1.397,0.22-3.25,0.22-5.563V36.438C729.169,34.565,729.096,32.932,729.023,31.536 M736.733,46.628h10.906v-10.85h-10.906
		V46.628z"/>
	<path style="fill:#FFFFFF;" d="M189.06,97.84l4.522,1.143c-0.948,3.713-2.653,6.546-5.115,8.496
		c-2.464,1.95-5.473,2.925-9.032,2.925c-3.685,0-6.68-0.749-8.987-2.249c-2.307-1.501-4.065-3.671-5.268-6.515
		c-1.204-2.844-1.807-5.897-1.807-9.16c0-3.559,0.68-6.664,2.041-9.313c1.36-2.649,3.294-4.663,5.804-6.038
		c2.509-1.375,5.272-2.062,8.286-2.062c3.418,0,6.293,0.87,8.625,2.61c2.331,1.74,3.955,4.188,4.872,7.344l-4.453,1.048
		c-0.793-2.487-1.942-4.296-3.45-5.432c-1.506-1.133-3.402-1.701-5.686-1.701c-2.626,0-4.822,0.63-6.587,1.888
		c-1.763,1.26-3.002,2.949-3.717,5.069c-0.714,2.122-1.071,4.31-1.071,6.562c0,2.906,0.422,5.443,1.27,7.611
		c0.846,2.169,2.162,3.789,3.95,4.86c1.786,1.072,3.722,1.609,5.805,1.609c2.531,0,4.677-0.73,6.434-2.192
		C187.251,102.884,188.441,100.715,189.06,97.84"/>
	<path style="fill:#FFFFFF;" d="M198.804,100.125l4.08-0.56c0.107,2.611,0.599,4.399,1.467,5.362
		c0.871,0.964,2.076,1.445,3.613,1.445c1.135,0,2.114-0.259,2.939-0.781c0.823-0.521,1.39-1.228,1.701-2.122
		c0.311-0.892,0.466-2.319,0.466-4.277V75.65h4.522v23.286c0,2.859-0.346,5.074-1.037,6.644c-0.691,1.57-1.788,2.767-3.287,3.589
		c-1.5,0.823-3.259,1.236-5.278,1.236c-3.001,0-5.297-0.863-6.89-2.587C199.506,106.094,198.742,103.529,198.804,100.125"/>
	<path style="fill:#FFFFFF;" d="M232.906,109.822l-9.067-34.172h4.637l5.199,22.401c0.56,2.346,1.041,4.677,1.446,6.992
		c0.869-3.652,1.383-5.756,1.537-6.316l6.504-23.077h5.454l4.895,17.296c1.228,4.288,2.115,8.322,2.657,12.097
		c0.436-2.159,1.005-4.638,1.703-7.436l5.36-21.957h4.546l-9.371,34.172h-4.358l-7.203-26.037c-0.606-2.176-0.962-3.512-1.073-4.01
		c-0.357,1.569-0.691,2.906-1.002,4.01l-7.249,26.037C237.521,109.822,232.906,109.822,232.906,109.822z"/>
	<rect x="289.944" y="75.65" style="fill:#FFFFFF;" width="4.522" height="34.172"/>
	<path style="fill:#FFFFFF;" d="M303.86,109.822V85.067h3.775v3.521c1.819-2.721,4.445-4.08,7.88-4.08
		c1.491,0,2.862,0.268,4.114,0.803c1.251,0.536,2.187,1.24,2.809,2.11c0.621,0.871,1.056,1.904,1.305,3.101
		c0.154,0.777,0.233,2.136,0.233,4.078v15.222h-4.195V94.764c0-1.711-0.164-2.986-0.49-3.835c-0.327-0.847-0.907-1.523-1.737-2.027
		c-0.832-0.506-1.807-0.759-2.925-0.759c-1.789,0-3.329,0.568-4.626,1.701c-1.298,1.136-1.947,3.289-1.947,6.457v13.521
		C308.056,109.822,303.86,109.822,303.86,109.822z"/>
	<path style="fill:#FFFFFF;" d="M341.527,106.068l0.606,3.708c-1.181,0.247-2.238,0.372-3.17,0.372
		c-1.524,0-2.704-0.241-3.543-0.722c-0.838-0.483-1.429-1.116-1.771-1.9c-0.342-0.784-0.514-2.437-0.514-4.953V88.331h-3.076v-3.264
		h3.076v-6.13l4.172-2.518v8.648h4.22v3.264h-4.22v14.474c0,1.197,0.074,1.968,0.223,2.307c0.146,0.344,0.388,0.616,0.722,0.817
		c0.334,0.203,0.811,0.303,1.433,0.303C340.152,106.232,340.766,106.178,341.527,106.068"/>
	<path style="fill:#FFFFFF;" d="M364.533,101.848l4.335,0.537c-0.683,2.534-1.95,4.499-3.798,5.897
		c-1.85,1.4-4.211,2.099-7.086,2.099c-3.623,0-6.492-1.116-8.614-3.346c-2.121-2.228-3.182-5.357-3.182-9.381
		c0-4.165,1.073-7.397,3.216-9.697c2.146-2.299,4.926-3.45,8.346-3.45c3.31,0,6.015,1.127,8.111,3.379
		c2.098,2.253,3.148,5.424,3.148,9.512c0,0.249-0.008,0.622-0.023,1.118h-18.461c0.154,2.72,0.922,4.802,2.307,6.246
		c1.382,1.447,3.107,2.169,5.175,2.169c1.539,0,2.852-0.404,3.938-1.213C363.033,104.912,363.897,103.622,364.533,101.848
		 M350.756,95.067h13.823c-0.186-2.083-0.714-3.646-1.585-4.687c-1.336-1.616-3.068-2.423-5.198-2.423
		c-1.927,0-3.547,0.645-4.859,1.935C351.623,91.183,350.898,92.906,350.756,95.067"/>
	<path style="fill:#FFFFFF;" d="M376.048,109.822V85.067h3.774v3.752c0.964-1.755,1.854-2.914,2.669-3.472
		c0.817-0.56,1.714-0.839,2.694-0.839c1.413,0,2.849,0.449,4.311,1.351l-1.444,3.893c-1.027-0.607-2.053-0.909-3.078-0.909
		c-0.917,0-1.739,0.275-2.471,0.828c-0.73,0.552-1.25,1.317-1.56,2.296c-0.468,1.492-0.702,3.124-0.702,4.895v12.96H376.048z"/>
	<path style="fill:#FFFFFF;" d="M393.95,109.822V85.067h3.774v3.521c1.82-2.721,4.446-4.08,7.881-4.08
		c1.491,0,2.862,0.268,4.113,0.803c1.251,0.536,2.187,1.24,2.809,2.11c0.622,0.871,1.057,1.904,1.306,3.101
		c0.154,0.777,0.233,2.136,0.233,4.078v15.222h-4.196V94.764c0-1.711-0.164-2.986-0.49-3.835c-0.326-0.847-0.906-1.523-1.736-2.027
		c-0.833-0.506-1.807-0.759-2.925-0.759c-1.789,0-3.33,0.568-4.626,1.701c-1.298,1.136-1.948,3.289-1.948,6.457v13.521
		C398.145,109.822,393.95,109.822,393.95,109.822z"/>
	<path style="fill:#FFFFFF;" d="M438.609,106.769c-1.553,1.321-3.049,2.254-4.486,2.796c-1.438,0.544-2.981,0.817-4.629,0.817
		c-2.718,0-4.809-0.665-6.27-1.993c-1.46-1.33-2.192-3.028-2.192-5.094c0-1.212,0.277-2.319,0.829-3.321
		c0.55-1.002,1.274-1.807,2.169-2.414c0.892-0.606,1.898-1.064,3.018-1.374c0.823-0.219,2.066-0.427,3.729-0.63
		c3.388-0.404,5.881-0.887,7.482-1.444c0.016-0.576,0.023-0.941,0.023-1.097c0-1.709-0.395-2.914-1.187-3.613
		c-1.071-0.948-2.667-1.421-4.779-1.421c-1.974,0-3.431,0.346-4.37,1.037c-0.94,0.691-1.635,1.915-2.087,3.671l-4.102-0.561
		c0.372-1.754,0.986-3.172,1.84-4.253c0.855-1.08,2.092-1.912,3.708-2.493c1.616-0.583,3.487-0.875,5.617-0.875
		c2.112,0,3.831,0.249,5.151,0.745c1.322,0.499,2.292,1.125,2.915,1.877c0.622,0.755,1.056,1.706,1.305,2.856
		c0.139,0.715,0.208,2.005,0.208,3.87v5.594c0,3.9,0.091,6.368,0.269,7.401c0.179,1.033,0.533,2.024,1.062,2.972h-4.384
		C439.014,108.951,438.735,107.933,438.609,106.769 M438.259,97.398c-1.521,0.622-3.806,1.149-6.853,1.585
		c-1.724,0.248-2.944,0.527-3.659,0.838s-1.266,0.767-1.655,1.364c-0.388,0.598-0.583,1.262-0.583,1.994
		c0,1.118,0.423,2.051,1.271,2.796c0.847,0.746,2.085,1.12,3.717,1.12c1.616,0,3.055-0.353,4.314-1.062
		c1.259-0.706,2.181-1.674,2.772-2.902c0.452-0.946,0.676-2.346,0.676-4.196V97.398z"/>
	<path style="fill:#FFFFFF;" d="M460.126,106.068l0.606,3.708c-1.181,0.247-2.238,0.372-3.17,0.372
		c-1.524,0-2.704-0.241-3.543-0.722c-0.838-0.483-1.429-1.116-1.771-1.9c-0.342-0.784-0.514-2.437-0.514-4.953V88.331h-3.076v-3.264
		h3.076v-6.13l4.173-2.518v8.648h4.219v3.264h-4.219v14.474c0,1.197,0.073,1.968,0.222,2.307c0.146,0.344,0.388,0.616,0.722,0.817
		c0.335,0.203,0.811,0.303,1.433,0.303C458.751,106.232,459.364,106.178,460.126,106.068"/>
	<path style="fill:#FFFFFF;" d="M466.207,75.65h4.196v4.826h-4.196V75.65z M466.207,85.067h4.196v24.755h-4.196V85.067z"/>
	<path style="fill:#FFFFFF;" d="M477.185,97.444c0-4.584,1.275-7.98,3.824-10.188c2.128-1.832,4.723-2.749,7.785-2.749
		c3.402,0,6.185,1.116,8.344,3.344c2.161,2.23,3.24,5.312,3.24,9.243c0,3.186-0.477,5.691-1.433,7.517
		c-0.956,1.827-2.345,3.245-4.173,4.254c-1.826,1.01-3.819,1.517-5.978,1.517c-3.466,0-6.268-1.113-8.403-3.335
		C478.254,104.826,477.185,101.625,477.185,97.444 M481.497,97.444c0,3.17,0.691,5.544,2.076,7.121
		c1.383,1.578,3.122,2.366,5.221,2.366c2.082,0,3.814-0.792,5.198-2.377c1.383-1.586,2.074-4.001,2.074-7.251
		c0-3.061-0.695-5.38-2.086-6.957c-1.391-1.578-3.12-2.365-5.186-2.365c-2.099,0-3.838,0.783-5.221,2.353
		C482.188,91.905,481.497,94.274,481.497,97.444"/>
	<path style="fill:#FFFFFF;" d="M507.255,109.822V85.067h3.775v3.521c1.819-2.721,4.445-4.08,7.88-4.08
		c1.491,0,2.862,0.268,4.114,0.803c1.251,0.536,2.187,1.24,2.809,2.11c0.621,0.871,1.056,1.904,1.305,3.101
		c0.154,0.777,0.233,2.136,0.233,4.078v15.222h-4.195V94.764c0-1.711-0.164-2.986-0.49-3.835c-0.327-0.847-0.907-1.523-1.737-2.027
		c-0.832-0.506-1.807-0.759-2.925-0.759c-1.788,0-3.329,0.568-4.626,1.701c-1.298,1.136-1.947,3.289-1.947,6.457v13.521
		C511.451,109.822,507.255,109.822,507.255,109.822z"/>
	<path style="fill:#FFFFFF;" d="M551.915,106.769c-1.553,1.321-3.05,2.254-4.487,2.796c-1.438,0.544-2.981,0.817-4.628,0.817
		c-2.718,0-4.81-0.665-6.269-1.993c-1.46-1.33-2.193-3.028-2.193-5.094c0-1.212,0.277-2.319,0.83-3.321
		c0.549-1.002,1.274-1.807,2.168-2.414c0.892-0.606,1.898-1.064,3.018-1.374c0.822-0.219,2.065-0.427,3.729-0.63
		c3.388-0.404,5.881-0.887,7.482-1.444c0.016-0.576,0.022-0.941,0.022-1.097c0-1.709-0.395-2.914-1.187-3.613
		c-1.071-0.948-2.666-1.421-4.778-1.421c-1.974,0-3.432,0.346-4.37,1.037c-0.941,0.691-1.636,1.915-2.087,3.671l-4.102-0.561
		c0.373-1.754,0.986-3.172,1.84-4.253c0.855-1.08,2.092-1.912,3.708-2.493c1.616-0.583,3.487-0.875,5.617-0.875
		c2.112,0,3.83,0.249,5.151,0.745c1.321,0.499,2.292,1.125,2.915,1.877c0.621,0.755,1.055,1.706,1.304,2.856
		c0.14,0.715,0.209,2.005,0.209,3.87v5.594c0,3.9,0.091,6.368,0.269,7.401s0.532,2.024,1.061,2.972h-4.383
		C552.32,108.951,552.04,107.933,551.915,106.769 M551.565,97.398c-1.521,0.622-3.807,1.149-6.854,1.585
		c-1.723,0.248-2.944,0.527-3.659,0.838c-0.714,0.311-1.266,0.767-1.654,1.364c-0.389,0.598-0.583,1.262-0.583,1.994
		c0,1.118,0.423,2.051,1.271,2.796c0.847,0.746,2.084,1.12,3.716,1.12c1.617,0,3.055-0.353,4.314-1.062
		c1.259-0.706,2.182-1.674,2.773-2.902c0.451-0.946,0.676-2.346,0.676-4.196L551.565,97.398L551.565,97.398z"/>
	<rect x="564.175" y="75.65" style="fill:#FFFFFF;" width="4.196" height="34.172"/>
	<path style="fill:#FFFFFF;" d="M616.971,97.84l4.522,1.143c-0.948,3.713-2.653,6.546-5.115,8.496
		c-2.464,1.95-5.474,2.925-9.033,2.925c-3.684,0-6.679-0.749-8.986-2.249c-2.308-1.501-4.065-3.671-5.268-6.515
		c-1.205-2.844-1.807-5.897-1.807-9.16c0-3.559,0.679-6.664,2.041-9.313c1.359-2.649,3.293-4.663,5.804-6.038
		c2.508-1.375,5.272-2.062,8.285-2.062c3.418,0,6.293,0.87,8.626,2.61c2.33,1.74,3.954,4.188,4.871,7.344l-4.452,1.048
		c-0.794-2.487-1.942-4.296-3.45-5.432c-1.507-1.133-3.402-1.701-5.687-1.701c-2.626,0-4.822,0.63-6.586,1.888
		c-1.763,1.26-3.003,2.949-3.717,5.069c-0.715,2.122-1.072,4.31-1.072,6.562c0,2.906,0.422,5.443,1.27,7.611
		c0.846,2.169,2.163,3.789,3.951,4.86c1.786,1.072,3.721,1.609,5.805,1.609c2.531,0,4.677-0.73,6.434-2.192
		C615.161,102.884,616.351,100.715,616.971,97.84"/>
	<path style="fill:#FFFFFF;" d="M626.925,97.444c0-4.584,1.275-7.98,3.824-10.188c2.128-1.832,4.722-2.749,7.785-2.749
		c3.402,0,6.184,1.116,8.344,3.344c2.16,2.23,3.24,5.312,3.24,9.243c0,3.186-0.478,5.691-1.433,7.517
		c-0.956,1.827-2.346,3.245-4.173,4.254c-1.827,1.01-3.819,1.517-5.978,1.517c-3.466,0-6.268-1.113-8.403-3.335
		C627.993,104.826,626.925,101.625,626.925,97.444 M631.237,97.444c0,3.17,0.691,5.544,2.076,7.121
		c1.382,1.578,3.122,2.366,5.221,2.366c2.082,0,3.813-0.792,5.198-2.377c1.383-1.586,2.073-4.001,2.073-7.251
		c0-3.061-0.694-5.38-2.085-6.957c-1.392-1.578-3.12-2.365-5.186-2.365c-2.099,0-3.839,0.783-5.221,2.353
		C631.928,91.905,631.237,94.274,631.237,97.444"/>
	<rect x="658.181" y="105.042" style="fill:#FFFFFF;" width="4.779" height="4.779"/>
	<path style="fill:#FFFFFF;" d="M673.31,109.822v-4.779h4.779v4.779c0,1.755-0.311,3.174-0.933,4.254
		c-0.621,1.079-1.609,1.915-2.96,2.506l-1.166-1.796c0.886-0.388,1.539-0.96,1.958-1.713c0.421-0.752,0.652-1.838,0.699-3.251
		H673.31z"/>
	<polygon style="fill:#FFFFFF;" points="687.784,109.822 687.784,75.65 692.306,75.65 692.306,105.79 709.137,105.79 
		709.137,109.822 	"/>
	<path style="fill:#FFFFFF;" d="M725.103,106.068l0.606,3.708c-1.181,0.247-2.238,0.372-3.17,0.372
		c-1.524,0-2.704-0.241-3.543-0.722c-0.838-0.483-1.429-1.116-1.771-1.9c-0.342-0.784-0.514-2.437-0.514-4.953V88.331h-3.076v-3.264
		h3.076v-6.13l4.173-2.518v8.648h4.219v3.264h-4.219v14.474c0,1.197,0.073,1.968,0.222,2.307c0.146,0.344,0.389,0.616,0.723,0.817
		c0.334,0.203,0.81,0.303,1.432,0.303C723.728,106.232,724.342,106.178,725.103,106.068"/>
	<path style="fill:#FFFFFF;" d="M747.222,109.822v-3.125c-1.571,2.457-3.878,3.685-6.923,3.685c-1.973,0-3.788-0.545-5.444-1.632
		c-1.654-1.089-2.936-2.607-3.845-4.557c-0.91-1.95-1.364-4.192-1.364-6.725c0-2.472,0.412-4.712,1.236-6.726
		c0.822-2.012,2.058-3.554,3.706-4.626c1.646-1.072,3.488-1.608,5.524-1.608c1.492,0,2.821,0.314,3.988,0.943
		c1.164,0.63,2.112,1.449,2.841,2.459V75.65h4.173v34.172C751.114,109.822,747.222,109.822,747.222,109.822z M733.959,97.468
		c0,3.17,0.668,5.54,2.004,7.109c1.339,1.57,2.914,2.354,4.733,2.354c1.834,0,3.393-0.749,4.673-2.249
		c1.282-1.499,1.923-3.789,1.923-6.865c0-3.387-0.652-5.873-1.958-7.459c-1.306-1.585-2.914-2.377-4.823-2.377
		c-1.865,0-3.424,0.761-4.675,2.284C734.585,91.789,733.959,94.189,733.959,97.468"/>
	<rect x="760.858" y="105.042" style="fill:#FFFFFF;" width="4.779" height="4.779"/>
</g>
</svg>
